Coordinates
version=1
nRows=38
nColumns=38
inDegrees=no

Units are S.I. units (second, meters, Newtons, ...)
If the header above contains a line with 'inDegrees', this indicates whether rotational values are in degrees (yes) or radians (no).

endheader
time	pelvis_tilt	pelvis_list	pelvis_rotation	pelvis_tx	pelvis_ty	pelvis_tz	hip_flexion_r	hip_adduction_r	hip_rotation_r	knee_angle_r	ankle_angle_r	subtalar_angle_r	mtp_angle_r	hip_flexion_l	hip_adduction_l	hip_rotation_l	knee_angle_l	ankle_angle_l	subtalar_angle_l	mtp_angle_l	lumbar_extension	lumbar_bending	lumbar_rotation	arm_flex_r	arm_add_r	arm_rot_r	elbow_flex_r	pro_sup_r	wrist_flex_r	wrist_dev_r	arm_flex_l	arm_add_l	arm_rot_l	elbow_flex_l	pro_sup_l	wrist_flex_l	wrist_dev_l
175	-2.68117	1.39691	1.35291	0.652805	1.86653	0.899111	0.120653	-0.0263541	0.00718604	0.271483	-0.135558	0	0	0.0775763	-0.123575	-0.166444	0	-0.310771	0	0	0.271399	0.0480608	-0.0136919	-0.0156805	-0.266674	0.232034	0.589112	1.5708	0	0	0.0927465	-0.0826613	0.460713	0.371973	1.5708	0	0
175.01	-2.69001	1.38889	1.36144	0.6535	1.86638	0.898455	0.129918	-0.0269944	0.00808651	0.273515	-0.135149	0	0	0.0844126	-0.122547	-0.160841	0	-0.31121	0	0	0.281803	0.0494585	-0.0137784	-0.0220468	-0.268175	0.225614	0.593132	1.5708	0	0	0.0903317	-0.0781832	0.461778	0.371361	1.5708	0	0
175.02	-2.69634	1.38698	1.36648	0.65398	1.86631	0.898214	0.132417	-0.0283762	0.00871644	0.274771	-0.1342	0	0	0.0854847	-0.121286	-0.159106	0	-0.31093	0	0	0.285205	0.0498187	-0.0123936	-0.0263611	-0.268852	0.220184	0.596434	1.5708	0	0	0.0903026	-0.0748752	0.46562	0.371313	1.5708	0	0
175.03	-2.69353	1.39207	1.36219	0.654359	1.86646	0.89837	0.126367	-0.029644	0.00717694	0.273581	-0.133642	0	0	0.078932	-0.120476	-0.15984	0	-0.309045	0	0	0.279758	0.050473	-0.00696382	-0.0334553	-0.268419	0.20352	0.605139	1.5708	0	0	0.0982125	-0.0741921	0.493738	0.368541	1.5708	0	0
175.04	-2.70153	1.38774	1.3683	0.654765	1.86615	0.897975	0.129822	-0.0307513	0.00579886	0.270784	-0.135246	0	0	0.0821402	-0.119686	-0.159631	0	-0.308879	0	0	0.28439	0.051009	-0.00431717	-0.0403886	-0.268613	0.196134	0.612131	1.5708	0	0	0.0981786	-0.0721484	0.499544	0.37112	1.5708	0	0
175.05	-2.70313	1.38732	1.36784	0.655098	1.86618	0.897842	0.130484	-0.0316535	0.00377522	0.270952	-0.133809	0	0	0.0814096	-0.119213	-0.159702	0	-0.309184	0	0	0.285411	0.0522955	-0.0040603	-0.0413117	-0.269291	0.198814	0.613789	1.5708	0	0	0.0953993	-0.0683711	0.48969	0.372279	1.5708	0	0
175.06	-2.69168	1.39544	1.35528	0.655479	1.86643	0.898248	0.118913	-0.0321783	-0.000958882	0.263987	-0.139071	0	0	0.0715323	-0.119241	-0.162055	0	-0.306368	0	0	0.276791	0.054148	-0.00153655	-0.0433792	-0.2697	0.195386	0.619099	1.56897	0	0	0.10203	-0.067984	0.512138	0.368812	1.5708	0	0
175.07	-2.69896	1.39084	1.36061	0.655874	1.86625	0.897822	0.122392	-0.0331365	-0.0022581	0.26013	-0.140927	0	0	0.0753911	-0.118363	-0.162407	0	-0.305478	0	0	0.282887	0.055123	-0.000338411	-0.047046	-0.269805	0.196757	0.62239	1.56661	0	0	0.100817	-0.0660426	0.51371	0.369816	1.5708	0	0
175.08	-2.70228	1.38899	1.36188	0.656153	1.86627	0.89755	0.123472	-0.0341151	-0.00454994	0.257259	-0.14217	0	0	0.0765535	-0.117824	-0.163032	0	-0.303905	0	0	0.285495	0.0562114	-1.01766e-05	-0.0481239	-0.269475	0.200268	0.624194	1.56656	0	0	0.10047	-0.0648172	0.514658	0.371278	1.5708	0	0
175.09	-2.70487	1.38697	1.36209	0.656315	1.86634	0.897298	0.125707	-0.0347554	-0.00632374	0.256544	-0.142956	0	0	0.0779541	-0.117559	-0.164087	0	-0.301777	0	0	0.2879	0.0573966	0.000896221	-0.0487715	-0.268716	0.204172	0.625286	1.56787	0	0	0.10036	-0.0637698	0.515417	0.37248	1.5708	0	0
175.1	-2.70616	1.38446	1.36095	0.656447	1.86646	0.897	0.128574	-0.034779	-0.00649074	0.256059	-0.143411	0	0	0.0797078	-0.117274	-0.165726	0	-0.298399	0	0	0.291197	0.0588749	0.00215283	-0.0492487	-0.267861	0.208851	0.625532	1.56977	0	0	0.101119	-0.0622296	0.516563	0.37187	1.5708	0	0
175.11	-2.71227	1.38104	1.36449	0.656579	1.86655	0.896739	0.13255	-0.035392	-0.00482576	0.255236	-0.143846	0	0	0.083408	-0.116825	-0.16637	0	-0.293109	0	0	0.295669	0.0596769	0.00399517	-0.050167	-0.266508	0.21299	0.625516	1.5708	0	0	0.101824	-0.0606668	0.517179	0.370223	1.5708	0	0
175.12	-2.46435	1.34535	1.10879	0.650969	1.86656	0.89183	0.149459	0.0463002	0.0423397	0.249069	-0.141947	0	0	0.0931038	-0.185875	-0.128098	0	-0.270417	0	0	0.314424	0.122089	0.000904089	-0.0654781	-0.275957	0.215199	0.657176	1.5708	0	0	0.0955589	-0.0654663	0.518411	0.397209	1.5708	0	0
175.13	-2.4669	1.34434	1.10966	0.651116	1.86679	0.891769	0.1513	0.0460286	0.0425673	0.249294	-0.142821	0	0	0.0943089	-0.185714	-0.12797	0	-0.265745	0	0	0.315467	0.122436	0.00328452	-0.0658772	-0.273498	0.216822	0.656097	1.5708	0	0	0.0967942	-0.065576	0.522224	0.399285	1.5708	0	0
175.14	-2.72171	1.37544	1.36813	0.65699	1.86712	0.896368	0.141969	-0.0369274	-0.00264492	0.258614	-0.144843	0	0	0.0893454	-0.115761	-0.166404	0	-0.291306	0	0	0.301964	0.0607181	0.00839481	-0.0481304	-0.260879	0.229272	0.619532	1.5708	0	0	0.101869	-0.0608386	0.519454	0.378249	1.5708	0	0
175.15	-2.72312	1.37567	1.36828	0.657131	1.86736	0.896452	0.143254	-0.037671	-0.00325749	0.260918	-0.144501	0	0	0.0892463	-0.115209	-0.165735	0	-0.298789	0	0	0.301541	0.0606645	0.00774694	-0.0445898	-0.258225	0.236918	0.61478	1.5708	0	0	0.101958	-0.0610518	0.518022	0.379853	1.5708	0	0
175.16	-2.72568	1.3739	1.36875	0.657185	1.86758	0.896376	0.147417	-0.0378648	-0.00109456	0.264771	-0.142981	0	0	0.0913738	-0.114953	-0.165917	0	-0.303645	0	0	0.301894	0.0605011	0.00298693	-0.0375011	-0.256022	0.253013	0.608968	1.5708	0	0	0.122958	-0.0155618	0.400182	0.349757	1.51324	0	0
175.17	-2.73022	1.3713	1.37094	0.657171	1.86769	0.8962	0.15225	-0.0381167	0.00177316	0.268412	-0.142459	0	0	0.0943456	-0.11462	-0.166782	0	-0.303648	0	0	0.30696	0.0609238	0.00748233	-0.0379699	-0.254253	0.260254	0.605033	1.5708	0	0	0.0994085	-0.0617839	0.511587	0.383833	1.5708	0	0
175.18	-2.73029	1.37105	1.36924	0.657236	1.8678	0.896234	0.152995	-0.0379816	0.00307666	0.268854	-0.142928	0	0	0.0945248	-0.114586	-0.167347	0	-0.303406	0	0	0.306829	0.0613054	0.00815743	-0.0367658	-0.251599	0.264403	0.603328	1.5708	0	0	0.0994037	-0.0622742	0.511986	0.3851	1.5708	0	0
175.19	-2.72986	1.3711	1.36718	0.657274	1.86791	0.896295	0.153234	-0.0378435	0.00378836	0.268873	-0.143423	0	0	0.0943406	-0.114632	-0.16775	0	-0.303119	0	0	0.306252	0.0616567	0.00890487	-0.0359644	-0.248803	0.267114	0.602434	1.5708	0	0	0.0996885	-0.0627216	0.512644	0.385978	1.5708	0	0
175.2	-2.72893	1.37055	1.36471	0.657328	1.868	0.896243	0.154468	-0.0376565	0.00381691	0.269938	-0.14283	0	0	0.0942596	-0.114601	-0.168495	0	-0.30302	0	0	0.306424	0.0623584	0.00952194	-0.0361377	-0.246165	0.267703	0.602952	1.5708	0	0	0.0998283	-0.0625671	0.511643	0.38584	1.5708	0	0
175.21	-2.73132	1.37107	1.36555	0.657395	1.86804	0.896319	0.154316	-0.0383559	0.00426401	0.270152	-0.142912	0	0	0.0937348	-0.11405	-0.169202	0	-0.302975	0	0	0.305563	0.0621483	0.0101926	-0.0358342	-0.243619	0.269755	0.603152	1.5708	0	0	0.100506	-0.0628681	0.512672	0.384412	1.5708	0	0
175.22	-2.72718	1.37505	1.36015	0.657546	1.86802	0.896626	0.147473	-0.0383145	0.00468633	0.263711	-0.14704	0	0	0.0885928	-0.113786	-0.172367	0	-0.302469	0	0	0.300373	0.0623269	0.0112781	-0.0352351	-0.241797	0.27286	0.604182	1.5708	0	0	0.101621	-0.0642904	0.517241	0.385392	1.5708	0	0
175.23	-2.72674	1.3763	1.35809	0.657651	1.86799	0.896684	0.144684	-0.038404	0.00528141	0.259773	-0.148054	0	0	0.0866106	-0.113339	-0.174641	0	-0.302081	0	0	0.298738	0.0625307	0.0124087	-0.0356671	-0.239897	0.274617	0.605816	1.5708	0	0	0.101685	-0.0649487	0.518577	0.386414	1.5708	0	0
175.24	-2.72961	1.37757	1.35897	0.657649	1.86788	0.896817	0.142685	-0.0390433	0.00582373	0.257737	-0.148397	0	0	0.0850323	-0.112824	-0.17927	0	-0.301833	0	0	0.297374	0.0620703	0.0136049	-0.0358352	-0.237465	0.276246	0.606838	1.5708	0	0	0.101584	-0.0658268	0.519076	0.386733	1.5708	0	0
175.25	-2.72954	1.37567	1.35819	0.657778	1.86807	0.896511	0.145647	-0.0389221	0.00511563	0.259514	-0.146854	0	0	0.0865479	-0.112629	-0.176294	0	-0.301795	0	0	0.299201	0.0626495	0.0135275	-0.0369006	-0.235486	0.276308	0.609164	1.5708	0	0	0.101322	-0.0672796	0.520415	0.386016	1.5708	0	0
175.26	-2.72941	1.37569	1.35692	0.657817	1.86813	0.896453	0.145582	-0.0389517	0.00458864	0.25879	-0.147884	0	0	0.0861115	-0.11272	-0.176519	0	-0.300711	0	0	0.29696	0.0623573	0.00941639	-0.0342218	-0.233259	0.281436	0.61071	1.5708	0	0	0.125768	-0.0220146	0.414591	0.348555	1.52289	0	0
175.27	-2.73034	1.37558	1.35634	0.657793	1.86812	0.896413	0.145511	-0.0390176	0.004597	0.257748	-0.148416	0	0	0.0858238	-0.112744	-0.177531	0	-0.300375	0	0	0.298558	0.063144	0.0138016	-0.0378479	-0.231387	0.278177	0.613407	1.5708	0	0	0.103221	-0.0672108	0.521627	0.378682	1.5708	0	0
175.28	-2.73105	1.37539	1.35569	0.657808	1.86813	0.896366	0.145849	-0.0392094	0.00419803	0.257701	-0.148246	0	0	0.0857718	-0.112739	-0.177722	0	-0.30041	0	0	0.298413	0.0634079	0.0133714	-0.0379192	-0.22949	0.279856	0.615158	1.5708	0	0	0.103248	-0.0666502	0.517003	0.375254	1.5708	0	0
175.29	-2.73136	1.37533	1.35451	0.657822	1.86813	0.896348	0.145844	-0.0392849	0.00420367	0.257089	-0.148669	0	0	0.0854786	-0.11277	-0.178331	0	-0.300106	0	0	0.298417	0.0635385	0.0143736	-0.0388715	-0.227717	0.280738	0.617186	1.5708	0	0	0.103813	-0.0674776	0.518537	0.372959	1.5708	0	0
175.3	-2.73268	1.37508	1.35422	0.657808	1.86811	0.896321	0.146017	-0.0393596	0.0049418	0.25623	-0.149065	0	0	0.0853529	-0.11262	-0.179079	0	-0.299852	0	0	0.298533	0.0637328	0.0146055	-0.0392532	-0.225878	0.282176	0.61896	1.5708	0	0	0.104085	-0.0680853	0.51838	0.370684	1.5708	0	0
175.31	-2.73373	1.37505	1.35368	0.657775	1.86809	0.8963	0.146043	-0.0394553	0.0053053	0.255549	-0.149557	0	0	0.0849992	-0.112469	-0.18014	0	-0.299611	0	0	0.298229	0.0639431	0.0145677	-0.0393341	-0.224154	0.283823	0.620666	1.5708	0	0	0.104474	-0.0688366	0.517053	0.367031	1.5708	0	0
175.32	-2.73403	1.37505	1.35256	0.657766	1.86804	0.896296	0.145952	-0.0394571	0.00517616	0.254788	-0.150151	0	0	0.0846006	-0.11245	-0.181375	0	-0.299375	0	0	0.297956	0.0642952	0.0145404	-0.0395136	-0.222825	0.285687	0.622351	1.5708	0	0	0.104996	-0.0692592	0.515056	0.363189	1.5708	0	0
175.33	-2.73171	1.37593	1.34872	0.657751	1.86799	0.89639	0.14441	-0.0390612	0.005223	0.252947	-0.152194	0	0	0.0831972	-0.112857	-0.183312	0	-0.298763	0	0	0.294381	0.0644213	0.0090058	-0.0349394	-0.221797	0.29522	0.622692	1.5708	0	0	0.127343	-0.0202483	0.373038	0.326194	1.50535	0	0
175.34	-2.73293	1.37605	1.3489	0.657777	1.8679	0.896389	0.143682	-0.039253	0.00511957	0.251199	-0.153611	0	0	0.0827418	-0.112617	-0.184103	0	-0.29856	0	0	0.295773	0.0649531	0.0135097	-0.0389989	-0.220886	0.291903	0.625835	1.5708	0	0	0.105103	-0.0682273	0.503371	0.354312	1.5708	0	0
175.35	-2.73535	1.37594	1.35026	0.65783	1.86787	0.896349	0.144026	-0.0397397	0.00521996	0.251478	-0.153179	0	0	0.0826589	-0.112063	-0.184211	0	-0.298483	0	0	0.296066	0.0647017	0.0130777	-0.0389754	-0.219374	0.293347	0.6268	1.5708	0	0	0.105431	-0.0667334	0.499939	0.349851	1.5708	0	0
175.36	-2.73586	1.37637	1.34957	0.657845	1.86784	0.896359	0.143432	-0.0398931	0.00560492	0.251	-0.15314	0	0	0.0817947	-0.11187	-0.184642	0	-0.298269	0	0	0.295566	0.0646373	0.0132022	-0.0391423	-0.218138	0.294118	0.628022	1.5708	0	0	0.106343	-0.0694225	0.500065	0.346949	1.5708	0	0
175.37	-2.73549	1.37654	1.34774	0.657786	1.86777	0.896374	0.142975	-0.0396066	0.00635664	0.250084	-0.153167	0	0	0.0809461	-0.112061	-0.185514	0	-0.298124	0	0	0.295291	0.064947	0.0132602	-0.0392102	-0.217124	0.295745	0.629272	1.5708	0	0	0.106718	-0.071651	0.49875	0.343465	1.5708	0	0
